<svg id="Layer_1" data-name="Layer 1" xmlns="http://www.w3.org/2000/svg" viewBox="0 0 263.02 61.79"><defs><style>.cls-1{fill:#fbb03b;}</style></defs><path class="cls-1" d="M454,331.9c0,6.68,3.42,7.75,3.42,8.2s-.22.54-.76.54-7.9-2-7.9-10.87c0-13.53,24.24-26.45,38.53-26.45,4.41,0,6.46,2.28,6.46,5.47,0,11.25-32.3,36.94-32.3,50.54,0,3,1.83,4.34,4,4.34,12.69,0,28.73-40.36,42-40.36a1.84,1.84,0,0,1,2,1.82c0,5.4-14.14,20.22-14.14,30.78,0,2.89,1.44,4.34,4.18,4.34,10.49,0,28.81-28,28.81-43.93,0-7.15-2-8-2-8.29s.15-.38.46-.38c.83,0,10.15,2.91,10.15,11.35,0,15-25.89,43.07-38.81,43.07-3.72,0-8.19-1.83-8.19-7.07,0-10.26,18.6-25.46,18.6-29.94,0-.23-.15-.38-.45-.38-6.84,0-30.71,40.43-42.64,40.43-4.18,0-12.51-6.25-12.51-11.11,0-17.33,38.88-35.4,38.88-46.35,0-2-1.14-3.19-4.4-3.19C474.86,304.46,454,319,454,331.9Z" transform="translate(-448.79 -303.32)"/><path class="cls-1" d="M538.77,359.49c5.48,0,12.85-4.34,17.71-8.82,1.07-.91,1,0,.46.53-5.17,4.79-13.61,10.11-20.45,10.11-4.33,0-8.49-2.21-8.49-6.31,0-7.14,12.75-15.66,18.68-15.66,2.28,0,3.42,1,3.42,2.74,0,3.8-5.17,7.6-15.51,9.81a8.23,8.23,0,0,0-.76,3.42C533.83,357.81,535.43,359.49,538.77,359.49ZM535,350.9c6.77-1.67,13.3-6.08,13.3-9,0-.61-.3-1-1.14-1C543.33,340.86,537.48,345.88,535,350.9Z" transform="translate(-448.79 -303.32)"/><path class="cls-1" d="M572.74,335.16a164.17,164.17,0,0,1,13.15-12.08,6,6,0,0,1,3.12-1.6,1.44,1.44,0,0,1,1.52,1.52c0,2.36-9.4,10.39-17.53,17-8,13-13.1,17.51-13.1,20.78,0,1.67.68,2.35,2.05,2.35,3.88,0,13.07-7.29,18.62-12.46,1.07-.91,1,0,.46.53C575.25,356.6,565.6,365,560.66,365c-2.43,0-3.66-1.15-3.66-4,0-4.26,3.66-10.33,12.32-20.9.16-.15,0-.22-.22-.07L556.94,351.2c-1.07.91-1,0-.46-.53C561,346.49,567.12,340.71,572.74,335.16Z" transform="translate(-448.79 -303.32)"/><path class="cls-1" d="M586.27,361.39c5.78,0,14.67-5.48,20.45-10.72,1.06-.91,1,0,.45.53-5.93,5.4-15.88,12.09-23.63,12.09-3.5,0-6.24-2-6.24-5.4,0-7.6,12.24-16.57,18.7-16.57,2.58,0,4,1.22,4,3.12a5.08,5.08,0,0,1-1.52,3.49,7.34,7.34,0,0,1-4.18,2.13c-.31,0-.53-.15-.53-.38a.51.51,0,0,1,.3-.38c2.51-1.29,4-3.5,4-5.17,0-.83-.53-1.29-1.67-1.29-5.4,0-14.46,9.23-14.46,15.16C582,360.36,583.46,361.39,586.27,361.39Z" transform="translate(-448.79 -303.32)"/><path class="cls-1" d="M620.32,355.91a1.52,1.52,0,0,0-.23.76c0,1.22,1.45,2.44,4,2.44,4.26,0,7.72-3.74,13.87-9.44,1.07-.91,1,0,.46.53-6,5.55-10.45,10-15.09,10-2.89,0-4.79-.61-5.78-1.82-2.35,1.74-4.94,3-7.29,3-3.12,0-5.4-1.75-5.4-5.4,0-6.08,10.34-15.65,16.72-15.65,3.12,0,4.64,1.44,4.64,4.4C626.25,347.86,623.74,352.42,620.32,355.91Zm2.28-14.06c-4.94,0-13.15,9.65-13.15,15,0,1.74.84,2.66,2.43,2.66a9,9,0,0,0,5.17-2.44,3,3,0,0,1-.07-.83c0-2.05,2.27-4.11,3.79-4.11a1.32,1.32,0,0,1,.77.23c1.9-2.66,3.26-5.55,3.26-8C624.8,342.76,624,341.85,622.6,341.85Z" transform="translate(-448.79 -303.32)"/><path class="cls-1" d="M660.67,354.65c2.88-2.13,8.81-7.45,12.84-7.45a2.38,2.38,0,0,1,2.59,2.35c0,3.12-6.62,7.38-6.62,11.18,0,1.14.76,1.82,2.36,1.82,4.18,0,12.62-5.55,17.33-9.88,1.06-.91,1,0,.45.53-5,4.56-14.36,11.1-19.76,11.1-2.43,0-4.86-.25-4.86-2.3,0-5,8.51-10.55,8.51-13,0-.38-.23-.61-.68-.61-2.81,0-9.35,5.17-13.46,8.52-1.44,1.14-2,2.05-2.88,2.05a2.12,2.12,0,0,1-1.75-2c0-2.81,10.41-11.17,10.41-14.29a.72.72,0,0,0-.76-.76c-3.27,0-16,9.5-22.88,18.32-1.06,1.44-1.52,2.2-2.58,2.2a2.19,2.19,0,0,1-2.28-2.05c0-4.1,11.55-14.06,11.55-16,0-.38-.23-.68-.76-.68-1.44,0-1-.8-9,6.5-1.07.91-1,0-.46-.53,8.06-7.37,8.24-7.41,10.36-7.41a2.25,2.25,0,0,1,2.36,2.28c0,2.73-4.33,7.06-7,10.79l.23.23c4.56-4.87,16.41-14.82,20.9-14.82a2.92,2.92,0,0,1,3.19,2.88c0,3.35-5.32,7.53-7.68,10.8Z" transform="translate(-448.79 -303.32)"/><path class="cls-1" d="M688.63,355.41c0-6.31,10.34-13.69,15.81-13.69,2.28,0,3.42,1,3.42,2.74,0,3.57-4.79,7.14-14.51,9.2a7.13,7.13,0,0,0-.31,2.13c0,2.28,1.6,3.87,5.17,3.87,7.22,0,11.7-6.08,13.22-6.08a.36.36,0,0,1,.38.38c0,1.75-8.28,7.6-16,7.6C691.45,361.56,688.63,359.36,688.63,355.41Zm16.27-12.24c-3.65,0-9.28,4.94-11.17,9.58,6.38-1.6,12.38-5.71,12.38-8.52C706.11,343.55,705.81,343.17,704.9,343.17Z" transform="translate(-448.79 -303.32)"/></svg>